<svg width="87" height="26" viewBox="0 0 87 26" fill="none" xmlns="http://www.w3.org/2000/svg">
<path fill-rule="evenodd" clip-rule="evenodd" d="M86.1239 13.1446L20.507 13.1446L86.1239 13.1446Z" fill="white"/>
<path d="M86.1239 13.1446L20.507 13.1446" stroke="white" stroke-linecap="square"/>
<path fill-rule="evenodd" clip-rule="evenodd" d="M31.4429 0.306152L25.4698 12.8066L1.06465 12.8066C14.5108 12.8066 31.4429 0.306152 31.4429 0.306152ZM1.06465 12.8091L25.4698 12.8091L31.4429 25.3058C31.4429 25.3058 14.5146 12.8091 1.06465 12.8091Z" fill="white"/>
<path d="M25.4698 12.8066L25.6953 12.9144C25.6538 13.0013 25.5661 13.0566 25.4698 13.0566V12.8066ZM31.4429 0.306152L31.2944 0.105026C31.3867 0.0368662 31.5136 0.0403147 31.6021 0.113389C31.6905 0.186463 31.7179 0.310394 31.6684 0.413938L31.4429 0.306152ZM1.06465 13.0566C0.92658 13.0566 0.814651 12.9446 0.814651 12.8066C0.814651 12.6685 0.92658 12.5566 1.06465 12.5566V13.0566ZM25.4698 12.8091V12.5591C25.566 12.5591 25.6538 12.6144 25.6953 12.7013L25.4698 12.8091ZM1.06465 13.0591C0.926579 13.0591 0.81465 12.9472 0.81465 12.8091C0.81465 12.671 0.926579 12.5591 1.06465 12.5591V13.0591ZM31.4429 25.3058L31.6684 25.198C31.7179 25.3015 31.6906 25.4255 31.6021 25.4985C31.5136 25.5716 31.3867 25.5751 31.2944 25.5069L31.4429 25.3058ZM25.4698 12.8066L25.2442 12.6988L31.2173 0.198367L31.4429 0.306152L31.6684 0.413938L25.6953 12.9144L25.4698 12.8066ZM1.06465 12.8066V12.5566L25.4698 12.5566V12.8066V13.0566L1.06465 13.0566V12.8066ZM31.4429 0.306152C31.5914 0.507279 31.5913 0.507354 31.5911 0.507477C31.5909 0.507581 31.5907 0.507752 31.5904 0.50796C31.5899 0.508377 31.589 0.508983 31.588 0.509777C31.5858 0.511365 31.5826 0.513705 31.5784 0.516784C31.57 0.522942 31.5576 0.532058 31.5412 0.544036C31.5083 0.567993 31.4595 0.603401 31.3954 0.649496C31.2672 0.741685 31.0778 0.876628 30.8322 1.04822C30.341 1.39139 29.6249 1.8812 28.7237 2.46877C26.9215 3.64375 24.3781 5.21045 21.4129 6.7774C15.492 9.90623 7.8519 13.0566 1.06465 13.0566V12.8066V12.5566C7.72356 12.5566 15.2725 9.45671 21.1793 6.33533C24.1278 4.77718 26.6578 3.21877 28.4506 2.04992C29.3469 1.46557 30.0586 0.978787 30.5459 0.638341C30.7895 0.468123 30.977 0.334503 31.1035 0.24358C31.1667 0.19812 31.2146 0.163334 31.2466 0.139987C31.2626 0.128314 31.2747 0.1195 31.2827 0.113641C31.2867 0.110712 31.2896 0.108521 31.2916 0.107081C31.2926 0.106361 31.2933 0.105829 31.2938 0.105486C31.294 0.105314 31.2941 0.105199 31.2943 0.105113C31.2944 0.105046 31.2944 0.105026 31.4429 0.306152ZM25.4698 12.8091V13.0591L1.06465 13.0591V12.8091V12.5591L25.4698 12.5591V12.8091ZM31.4429 25.3058L31.2173 25.4136L25.2442 12.9169L25.4698 12.8091L25.6953 12.7013L31.6684 25.198L31.4429 25.3058ZM1.06465 12.8091V12.5591C7.85378 12.5591 15.4939 15.7085 21.4143 18.8364C24.3793 20.4029 26.9223 21.9691 28.7242 23.1437C29.6253 23.7311 30.3413 24.2208 30.8324 24.5639C31.0779 24.7354 31.2673 24.8703 31.3954 24.9625C31.4595 25.0086 31.5083 25.044 31.5412 25.0679C31.5576 25.0799 31.57 25.089 31.5784 25.0952C31.5826 25.0982 31.5858 25.1006 31.588 25.1022C31.589 25.103 31.5899 25.1036 31.5904 25.104C31.5907 25.1042 31.5909 25.1044 31.5911 25.1045C31.5912 25.1046 31.5913 25.1047 31.4429 25.3058C31.2944 25.5069 31.2944 25.5069 31.2943 25.5068C31.2942 25.5067 31.294 25.5066 31.2938 25.5065C31.2933 25.5061 31.2926 25.5056 31.2916 25.5049C31.2896 25.5034 31.2867 25.5012 31.2827 25.4983C31.2747 25.4924 31.2627 25.4836 31.2466 25.472C31.2146 25.4486 31.1667 25.4139 31.1035 25.3684C30.9771 25.2775 30.7896 25.1439 30.546 24.9738C30.0588 24.6334 29.3473 24.1468 28.4511 23.5626C26.6587 22.3941 24.129 20.8362 21.1807 19.2785C15.2745 16.158 7.72548 13.0591 1.06465 13.0591V12.8091Z" fill="white"/>
</svg>
