<svg width="87" height="26" viewBox="0 0 87 26" fill="none" xmlns="http://www.w3.org/2000/svg">
<path fill-rule="evenodd" clip-rule="evenodd" d="M1.16431 13.1446L66.7812 13.1446L1.16431 13.1446Z" fill="white"/>
<path d="M1.16431 13.1446L66.7812 13.1446" stroke="white" stroke-linecap="square"/>
<path fill-rule="evenodd" clip-rule="evenodd" d="M55.8453 0.306152L61.8185 12.8066L86.2236 12.8066C72.7774 12.8066 55.8453 0.306152 55.8453 0.306152ZM86.2236 12.8091L61.8185 12.8091L55.8453 25.3058C55.8453 25.3058 72.7736 12.8091 86.2236 12.8091Z" fill="white"/>
<path d="M61.8185 12.8066L61.5929 12.9144C61.6344 13.0013 61.7221 13.0566 61.8185 13.0566V12.8066ZM55.8453 0.306152L55.9938 0.105026C55.9015 0.0368662 55.7746 0.0403147 55.6861 0.113389C55.5977 0.186463 55.5703 0.310394 55.6198 0.413938L55.8453 0.306152ZM86.2236 13.0566C86.3616 13.0566 86.4736 12.9446 86.4736 12.8066C86.4736 12.6685 86.3616 12.5566 86.2236 12.5566V13.0566ZM61.8185 12.8091V12.5591C61.7222 12.5591 61.6344 12.6144 61.5929 12.7013L61.8185 12.8091ZM86.2236 13.0591C86.3616 13.0591 86.4736 12.9472 86.4736 12.8091C86.4736 12.671 86.3616 12.5591 86.2236 12.5591V13.0591ZM55.8453 25.3058L55.6198 25.198C55.5703 25.3015 55.5976 25.4255 55.6861 25.4985C55.7746 25.5716 55.9015 25.5751 55.9938 25.5069L55.8453 25.3058ZM61.8185 12.8066L62.044 12.6988L56.0709 0.198367L55.8453 0.306152L55.6198 0.413938L61.5929 12.9144L61.8185 12.8066ZM86.2236 12.8066V12.5566L61.8185 12.5566V12.8066V13.0566L86.2236 13.0566V12.8066ZM55.8453 0.306152C55.6969 0.507279 55.697 0.507354 55.6971 0.507477C55.6973 0.507581 55.6975 0.507752 55.6978 0.50796C55.6983 0.508377 55.6992 0.508983 55.7002 0.509777C55.7024 0.511365 55.7056 0.513705 55.7098 0.516784C55.7182 0.522942 55.7306 0.532058 55.7471 0.544036C55.7799 0.567993 55.8287 0.603401 55.8928 0.649496C56.021 0.741685 56.2104 0.876628 56.456 1.04822C56.9472 1.39139 57.6633 1.8812 58.5645 2.46877C60.3667 3.64375 62.9101 5.21045 65.8753 6.7774C71.7962 9.90623 79.4363 13.0566 86.2236 13.0566V12.8066V12.5566C79.5646 12.5566 72.0157 9.45671 66.1089 6.33533C63.1604 4.77718 60.6304 3.21877 58.8376 2.04992C57.9413 1.46557 57.2296 0.978787 56.7423 0.638341C56.4987 0.468123 56.3112 0.334503 56.1847 0.24358C56.1215 0.19812 56.0736 0.163334 56.0416 0.139987C56.0256 0.128314 56.0135 0.1195 56.0055 0.113641C56.0015 0.110712 55.9986 0.108521 55.9966 0.107081C55.9956 0.106361 55.9949 0.105829 55.9944 0.105486C55.9942 0.105314 55.9941 0.105199 55.9939 0.105113C55.9938 0.105046 55.9938 0.105026 55.8453 0.306152ZM61.8185 12.8091V13.0591L86.2236 13.0591V12.8091V12.5591L61.8185 12.5591V12.8091ZM55.8453 25.3058L56.0709 25.4136L62.044 12.9169L61.8185 12.8091L61.5929 12.7013L55.6198 25.198L55.8453 25.3058ZM86.2236 12.8091V12.5591C79.4344 12.5591 71.7943 15.7085 65.8739 18.8364C62.9089 20.4029 60.3659 21.9691 58.564 23.1437C57.6629 23.7311 56.9469 24.2208 56.4558 24.5639C56.2103 24.7354 56.0209 24.8703 55.8928 24.9625C55.8287 25.0086 55.7799 25.044 55.7471 25.0679C55.7306 25.0799 55.7182 25.089 55.7098 25.0952C55.7056 25.0982 55.7024 25.1006 55.7002 25.1022C55.6992 25.103 55.6983 25.1036 55.6978 25.104C55.6975 25.1042 55.6973 25.1044 55.6971 25.1045C55.697 25.1046 55.6969 25.1047 55.8453 25.3058C55.9938 25.5069 55.9938 25.5069 55.9939 25.5068C55.9941 25.5067 55.9942 25.5066 55.9944 25.5065C55.9949 25.5061 55.9956 25.5056 55.9966 25.5049C55.9986 25.5034 56.0015 25.5012 56.0055 25.4983C56.0135 25.4924 56.0256 25.4836 56.0416 25.472C56.0736 25.4486 56.1215 25.4139 56.1847 25.3684C56.3111 25.2775 56.4986 25.1439 56.7422 24.9738C57.2294 24.6334 57.9409 24.1468 58.8371 23.5626C60.6295 22.3941 63.1592 20.8362 66.1075 19.2785C72.0137 16.158 79.5627 13.0591 86.2236 13.0591V12.8091Z" fill="white"/>
</svg>
