<svg width="122" height="49" viewBox="0 0 122 49" fill="none" xmlns="http://www.w3.org/2000/svg">
<g filter="url(#filter0_d_98_288)">
<path d="M4.95215 30V8.51562H9.24902V26.3379H13.668V30H4.95215ZM14.6934 30V8.51562H18.8438V30H14.6934ZM24.9839 30.1953C21.9159 30.1953 20.3818 27.998 20.3818 23.6035V14.3384C20.3818 10.3263 22.1396 8.32031 25.6553 8.32031C27.1038 8.32031 28.2147 8.61328 28.9878 9.19922C29.7609 9.77702 30.2939 10.6234 30.5869 11.7383C30.8799 12.8532 31.0264 14.2122 31.0264 15.8154H26.8271V13.9111C26.8271 13.4473 26.762 13.0607 26.6318 12.7515C26.5098 12.4341 26.2493 12.2754 25.8506 12.2754C25.3542 12.2754 25.0246 12.4422 24.8618 12.7759C24.7072 13.1095 24.6299 13.4757 24.6299 13.8745V24.2871C24.6299 24.8649 24.7031 25.3369 24.8496 25.7031C25.0042 26.0612 25.3013 26.2402 25.7407 26.2402C26.1965 26.2402 26.4976 26.0612 26.644 25.7031C26.7987 25.3369 26.876 24.8568 26.876 24.2627V21.1987H25.7285V17.4878H30.9775V30H29.2563L28.5239 28.1934C27.7752 29.528 26.5952 30.1953 24.9839 30.1953ZM32.6865 30V8.51562H36.959V16.1938H38.9854V8.51562H43.2578V30H38.9854V20.2588H36.959V30H32.6865ZM47.0054 30V12.6416H44.4541V8.51562H53.8535V12.6416H51.3022V30H47.0054ZM60.9092 30V8.51562H66.7319C68.2944 8.51562 69.4297 8.89811 70.1377 9.66309C70.8538 10.4199 71.2119 11.6732 71.2119 13.4229V14.3628C71.2119 15.3719 71.0288 16.1898 70.6626 16.8164C70.3045 17.443 69.7552 17.854 69.0146 18.0493C69.9831 18.2935 70.63 18.8672 70.9556 19.7705C71.2892 20.6657 71.4561 21.7603 71.4561 23.0542C71.4561 24.4458 71.3258 25.6624 71.0654 26.7041C70.805 27.7458 70.333 28.5555 69.6494 29.1333C68.9658 29.7111 67.9933 30 66.7319 30H60.9092ZM65.1084 16.6089H65.9873C66.3861 16.6089 66.6424 16.4543 66.7563 16.145C66.8703 15.8358 66.9272 15.4655 66.9272 15.0342V12.8735C66.9272 12.1818 66.6221 11.8359 66.0117 11.8359H65.1084V16.6089ZM65.5356 26.2158C66.6506 26.2158 67.208 25.6868 67.208 24.6289V21.9434C67.208 21.333 67.1144 20.8529 66.9272 20.5029C66.7482 20.1449 66.4064 19.9658 65.9019 19.9658H65.1084V26.1914C65.2874 26.2077 65.4299 26.2158 65.5356 26.2158ZM77.999 30.1953C76.2819 30.1953 74.9676 29.6785 74.0562 28.645C73.1528 27.6034 72.7012 26.1019 72.7012 24.1406V13.9355C72.7012 12.0964 73.1488 10.7007 74.0439 9.74854C74.9473 8.79639 76.2656 8.32031 77.999 8.32031C79.7324 8.32031 81.0467 8.79639 81.9419 9.74854C82.8452 10.7007 83.2969 12.0964 83.2969 13.9355V24.1406C83.2969 26.1019 82.8411 27.6034 81.9297 28.645C81.0264 29.6785 79.7161 30.1953 77.999 30.1953ZM78.0356 26.2402C78.6867 26.2402 79.0122 25.6095 79.0122 24.3481V13.8623C79.0122 12.8044 78.6948 12.2754 78.0601 12.2754C77.3439 12.2754 76.9858 12.8166 76.9858 13.8989V24.3726C76.9858 25.0399 77.0672 25.52 77.23 25.813C77.3927 26.0978 77.6613 26.2402 78.0356 26.2402ZM90.1572 30.1953C88.4401 30.1953 87.1258 29.6785 86.2144 28.645C85.311 27.6034 84.8594 26.1019 84.8594 24.1406V13.9355C84.8594 12.0964 85.307 10.7007 86.2021 9.74854C87.1055 8.79639 88.4238 8.32031 90.1572 8.32031C91.8906 8.32031 93.2049 8.79639 94.1001 9.74854C95.0034 10.7007 95.4551 12.0964 95.4551 13.9355V24.1406C95.4551 26.1019 94.9993 27.6034 94.0879 28.645C93.1846 29.6785 91.8743 30.1953 90.1572 30.1953ZM90.1938 26.2402C90.8449 26.2402 91.1704 25.6095 91.1704 24.3481V13.8623C91.1704 12.8044 90.853 12.2754 90.2183 12.2754C89.5021 12.2754 89.144 12.8166 89.144 13.8989V24.3726C89.144 25.0399 89.2254 25.52 89.3882 25.813C89.5509 26.0978 89.8195 26.2402 90.1938 26.2402ZM102.291 30.1953C100.33 30.1953 98.9137 29.707 98.043 28.7305C97.1803 27.7539 96.749 26.1995 96.749 24.0674V21.9678H100.997V24.6533C100.997 25.1497 101.07 25.5404 101.217 25.8252C101.371 26.1019 101.636 26.2402 102.01 26.2402C102.401 26.2402 102.669 26.1263 102.816 25.8984C102.971 25.6706 103.048 25.2962 103.048 24.7754C103.048 24.1162 102.983 23.5669 102.853 23.1274C102.722 22.6799 102.494 22.2567 102.169 21.8579C101.852 21.451 101.408 20.979 100.838 20.4419L98.9097 18.6108C97.4692 17.2518 96.749 15.6974 96.749 13.9478C96.749 12.1167 97.1722 10.721 98.0186 9.76074C98.873 8.80046 100.106 8.32031 101.717 8.32031C103.687 8.32031 105.082 8.84521 105.904 9.89502C106.734 10.9448 107.149 12.5399 107.149 14.6802H102.779V13.2031C102.779 12.9102 102.694 12.6823 102.523 12.5195C102.36 12.3568 102.136 12.2754 101.852 12.2754C101.51 12.2754 101.257 12.373 101.095 12.5684C100.94 12.7555 100.863 12.9997 100.863 13.3008C100.863 13.6019 100.944 13.9274 101.107 14.2773C101.27 14.6273 101.591 15.0301 102.071 15.4858L104.549 17.8662C105.046 18.3382 105.501 18.8387 105.917 19.3677C106.332 19.8885 106.665 20.4989 106.917 21.1987C107.17 21.8905 107.296 22.7368 107.296 23.7378C107.296 25.756 106.922 27.3389 106.173 28.4863C105.432 29.6257 104.138 30.1953 102.291 30.1953ZM110.58 30V12.6416H108.028V8.51562H117.428V12.6416H114.876V30H110.58Z" fill="url(#paint0_linear_98_288)"/>
</g>
<g filter="url(#filter1_d_98_288)">
<path d="M37.675 35.125C37.275 35.125 36.875 34.9833 36.475 34.7C36.075 34.4167 35.85 34.0833 35.8 33.7C35.6333 32.4167 36.4417 30.8917 38.225 29.125C39.9917 27.3583 41.5833 26.475 43 26.475C43.3833 26.475 43.6833 26.5667 43.9 26.75C44.0167 26.8667 44.1 27.025 44.15 27.225C44.2167 27.425 44.2667 27.525 44.3 27.525C44.3667 27.525 44.425 27.5167 44.475 27.5C44.525 27.4667 44.5833 27.45 44.65 27.45C44.85 27.45 45.025 27.525 45.175 27.675C45.325 27.825 45.4083 27.9583 45.425 28.075C45.4417 28.1083 44.9083 28.9333 43.825 30.55C42.7417 32.1333 42.25 33.2083 42.35 33.775C42.4333 34.1583 42.6167 34.35 42.9 34.35C43.7667 34.35 45.35 32.9167 47.65 30.05C47.7 29.9833 47.75 29.95 47.8 29.95C47.8833 29.95 47.925 30.0083 47.925 30.125C47.925 30.2583 47.85 30.425 47.7 30.625C45.5833 33.475 43.9583 34.9 42.825 34.9C42.675 34.9 42.5333 34.875 42.4 34.825C41.6667 34.5417 41.3 33.9917 41.3 33.175C41.3 32.8917 41.3333 32.6083 41.4 32.325L39.85 33.825C39.3833 34.2917 38.9583 34.625 38.575 34.825C38.2083 35.025 37.9083 35.125 37.675 35.125ZM37.45 34.575C38.4167 34.575 39.7333 33.5167 41.4 31.4L44.05 27.75C43.9167 27.5167 43.7 27.4 43.4 27.4C42.3833 27.4 41.0083 28.2167 39.275 29.85C37.475 31.5167 36.6667 32.8917 36.85 33.975C36.9333 34.375 37.1333 34.575 37.45 34.575ZM46.0277 40.125C45.5277 40.125 45.1027 39.9167 44.7527 39.5C44.4027 39.0833 44.2194 38.6333 44.2027 38.15C44.2527 37.95 44.3277 37.85 44.4277 37.85C44.5277 37.85 44.5861 37.975 44.6027 38.225C44.6194 38.4917 44.7527 38.75 45.0027 39C45.2527 39.25 45.4944 39.375 45.7277 39.375C46.6944 39.375 47.7111 38.75 48.7777 37.5C49.1611 37.05 49.5527 36.5167 49.9527 35.9C50.3694 35.3 50.7694 34.6167 51.1527 33.85L52.4027 31.375L50.5277 33.275C49.9444 33.8583 49.4361 34.2917 49.0027 34.575C48.5861 34.8583 48.2611 35 48.0277 35C47.6277 35 47.2277 34.8583 46.8277 34.575C46.4277 34.275 46.2027 33.9333 46.1527 33.55C45.9861 32.2667 46.7944 30.7417 48.5777 28.975C50.3611 27.225 51.9527 26.35 53.3527 26.35C53.7361 26.35 54.0361 26.4417 54.2527 26.625C54.3694 26.725 54.4527 26.875 54.5027 27.075C54.5694 27.275 54.6194 27.375 54.6527 27.375C54.7194 27.375 54.7777 27.3667 54.8277 27.35C54.8777 27.3167 54.9361 27.3 55.0027 27.3C55.2194 27.3 55.3944 27.375 55.5277 27.525C55.6777 27.675 55.7277 27.825 55.6777 27.975C55.6611 28.125 55.4194 28.575 54.9527 29.325C54.6527 29.825 54.3111 30.4333 53.9277 31.15C53.5444 31.85 53.1361 32.5833 52.7027 33.35C52.2861 34.1 51.8777 34.8 51.4777 35.45C51.0777 36.1167 50.7194 36.6583 50.4027 37.075C48.8694 39.1083 47.4111 40.125 46.0277 40.125ZM47.8027 34.425C48.7694 34.425 50.0861 33.3667 51.7527 31.25L54.4027 27.6C54.3027 27.3667 54.0944 27.25 53.7777 27.25C52.7444 27.25 51.3611 28.0667 49.6277 29.7C47.8277 31.4 47.0194 32.775 47.2027 33.825C47.2861 34.225 47.4861 34.425 47.8027 34.425ZM56.8307 35.325C56.2973 35.325 55.814 35.1583 55.3807 34.825C54.9473 34.475 54.7307 34.0167 54.7307 33.45C54.7307 32.2667 55.4557 30.9167 56.9057 29.4C58.389 27.8667 59.714 27.1 60.8807 27.1C61.264 27.1 61.5723 27.2083 61.8057 27.425C62.0557 27.625 62.1807 27.875 62.1807 28.175C62.1807 29.1083 61.439 30.025 59.9557 30.925C58.639 31.725 57.5307 32.125 56.6307 32.125C56.4973 32.125 56.3807 32.1083 56.2807 32.075C56.0307 32.525 55.9057 33 55.9057 33.5C55.9057 34.3667 56.314 34.8 57.1307 34.8C57.964 34.8 59.039 34.2417 60.3557 33.125C61.3723 32.3083 62.239 31.4417 62.9557 30.525C63.1057 30.325 63.239 30.225 63.3557 30.225C63.4557 30.225 63.5057 30.275 63.5057 30.375C63.5057 30.475 63.439 30.6167 63.3057 30.8C62.839 31.4167 62.339 31.9833 61.8057 32.5C61.2723 33.0167 60.6973 33.4917 60.0807 33.925C58.7973 34.8583 57.714 35.325 56.8307 35.325ZM56.9807 31.575C57.614 31.575 58.439 31.2583 59.4557 30.625C59.789 30.3917 60.114 30.1333 60.4307 29.85C60.764 29.55 61.0307 29.25 61.2307 28.95C61.4473 28.65 61.5557 28.3833 61.5557 28.15C61.5557 27.9333 61.3807 27.825 61.0307 27.825C60.5307 27.825 59.8307 28.2 58.9307 28.95C58.4973 29.3167 58.0807 29.7167 57.6807 30.15C57.2807 30.5833 56.939 31.0417 56.6557 31.525C56.7557 31.5583 56.864 31.575 56.9807 31.575ZM68.3516 35.05C67.9016 35.05 67.5849 34.925 67.4016 34.675C67.2182 34.4083 67.1266 34.0833 67.1266 33.7C67.1266 32.7333 67.4599 31.7 68.1266 30.6L69.7266 28C68.5932 28.8333 67.4682 29.875 66.3516 31.125C66.0516 31.4583 65.7099 31.85 65.3266 32.3C64.9599 32.75 64.5516 33.2667 64.1016 33.85C63.5016 34.6333 63.1432 35.025 63.0266 35.025C62.7932 35.025 62.6016 34.925 62.4516 34.725C62.3016 34.5083 62.2266 34.3167 62.2266 34.15C62.2266 34.0167 62.2682 33.775 62.3516 33.425C62.4349 33.0583 62.5349 32.7417 62.6516 32.475C62.7682 32.1917 62.8849 31.9167 63.0016 31.65C63.1349 31.3667 63.2599 31.0917 63.3766 30.825L61.8766 32.4C61.8432 32.4333 61.7432 32.5333 61.5766 32.7C61.4099 32.8667 61.2766 32.95 61.1766 32.95C61.0932 32.95 61.0516 32.8917 61.0516 32.775C61.0516 32.7417 61.0682 32.7 61.1016 32.65C61.1182 32.5833 61.1682 32.5083 61.2516 32.425C61.5016 32.175 61.7599 31.9083 62.0266 31.625C62.2932 31.3417 62.5682 31.0167 62.8516 30.65C63.0016 30.4667 63.2266 30.1917 63.5266 29.825C63.8266 29.4417 64.1516 29.0333 64.5016 28.6C64.8682 28.1667 65.2099 27.7667 65.5266 27.4C65.6099 27.2833 65.7016 27.2083 65.8016 27.175C65.9016 27.125 65.9682 27.1 66.0016 27.1C66.4516 27.1 66.6766 27.275 66.6766 27.625C66.6766 27.725 66.6516 27.825 66.6016 27.925C65.1016 29.9917 64.2016 31.5667 63.9016 32.65C65.8349 30.7167 67.3849 29.2667 68.5516 28.3C69.7349 27.3167 70.5766 26.825 71.0766 26.825C71.3432 26.825 71.5432 26.8667 71.6766 26.95C71.8266 27.0333 71.9016 27.1917 71.9016 27.425C71.9016 27.5083 71.8932 27.575 71.8766 27.625C71.8266 27.7417 71.4849 28.2083 70.8516 29.025C70.4682 29.4917 70.1266 29.9167 69.8266 30.3C69.5432 30.6833 69.3099 31.0167 69.1266 31.3C68.8266 31.7667 68.6016 32.2083 68.4516 32.625C68.3016 33.025 68.2266 33.3667 68.2266 33.65C68.2266 33.7667 68.2432 33.9083 68.2766 34.075C68.3099 34.2417 68.4099 34.325 68.5766 34.325C68.9599 34.325 69.5599 33.9917 70.3766 33.325C70.7599 32.9917 71.1182 32.6583 71.4516 32.325C71.7849 31.975 72.1016 31.6333 72.4016 31.3C72.4682 31.2333 72.5766 31.1083 72.7266 30.925C72.8766 30.725 72.9682 30.625 73.0016 30.625C73.0682 30.625 73.1016 30.6917 73.1016 30.825C73.1016 30.8917 73.0599 31.0083 72.9766 31.175C72.9099 31.325 72.8349 31.4417 72.7516 31.525C72.5682 31.7417 72.2932 32.0417 71.9266 32.425C71.5766 32.8083 71.1766 33.2 70.7266 33.6C70.2932 34 69.8682 34.3417 69.4516 34.625C69.0349 34.9083 68.6682 35.05 68.3516 35.05ZM73.9596 35.325C73.4262 35.325 72.9429 35.1583 72.5096 34.825C72.0762 34.475 71.8596 34.0167 71.8596 33.45C71.8596 32.2667 72.5846 30.9167 74.0346 29.4C75.5179 27.8667 76.8429 27.1 78.0096 27.1C78.4096 27.1 78.7262 27.2083 78.9596 27.425C79.1929 27.625 79.3096 27.875 79.3096 28.175C79.3096 28.5917 79.2096 28.975 79.0096 29.325C78.7762 29.7583 78.4429 29.975 78.0096 29.975C77.5762 29.975 77.3596 29.8417 77.3596 29.575C77.3596 29.3917 77.4679 29.1167 77.6846 28.75C77.9179 28.3667 78.0346 28.1667 78.0346 28.15C78.0346 28.1167 78.0096 28.1 77.9596 28.1C77.4929 28.15 76.8429 28.4917 76.0096 29.125C75.6429 29.4083 75.3179 29.675 75.0346 29.925C74.7679 30.175 74.5512 30.4167 74.3846 30.65L73.4096 32.075C73.3096 32.225 73.2012 32.4833 73.0846 32.85C72.9846 33.2167 72.9346 33.4917 72.9346 33.675C72.9346 34.0083 73.0429 34.2833 73.2596 34.5C73.4929 34.7167 73.7846 34.825 74.1346 34.825C74.9679 34.825 76.0679 34.2833 77.4346 33.2C78.5346 32.3333 79.4179 31.4583 80.0846 30.575C80.1679 30.475 80.2679 30.425 80.3846 30.425C80.5012 30.425 80.5596 30.4583 80.5596 30.525C80.5596 30.575 80.5179 30.6583 80.4346 30.775C79.5179 31.9917 78.4429 33.0417 77.2096 33.925C75.8929 34.8583 74.8096 35.325 73.9596 35.325ZM79.7146 40.125C79.1813 40.125 78.7146 39.9 78.3146 39.45C77.9146 38.9833 77.723 38.4667 77.7396 37.9C77.9396 38.15 78.2063 38.4417 78.5396 38.775C78.973 39.1917 79.398 39.4 79.8146 39.4C80.7646 39.4 81.7896 38.6417 82.8896 37.125C83.273 36.5917 83.6646 35.9667 84.0646 35.25C84.4813 34.55 84.873 33.7667 85.2396 32.9L86.1896 30.6L82.5146 33.475C81.3813 34.3583 80.473 34.8 79.7896 34.8C79.423 34.8 79.1313 34.6667 78.9146 34.4C78.698 34.1333 78.5896 33.8583 78.5896 33.575C78.5896 32.8583 79.2063 31.6833 80.4396 30.05C81.673 28.4 82.598 27.575 83.2146 27.575C83.7313 27.575 83.9896 27.7667 83.9896 28.15C83.9896 28.3 83.248 29.1667 81.7646 30.75C80.298 32.3167 79.5646 33.375 79.5646 33.925C79.5646 34.1417 79.7063 34.25 79.9896 34.25C80.523 34.25 81.6813 33.5583 83.4646 32.175C84.198 31.5917 84.848 31.0583 85.4146 30.575C85.9813 30.0917 86.4563 29.6583 86.8396 29.275C86.973 29.1083 87.1063 28.95 87.2396 28.8C87.373 28.6333 87.498 28.4667 87.6146 28.3C87.9313 27.9333 88.248 27.75 88.5646 27.75C89.0146 27.75 89.2396 27.9333 89.2396 28.3C89.2396 28.3667 88.8896 28.9167 88.1896 29.95C87.823 30.5167 87.5313 30.9583 87.3146 31.275C87.098 31.575 86.973 31.7667 86.9396 31.85C86.423 32.85 85.6313 34.3083 84.5646 36.225C82.948 38.825 81.3313 40.125 79.7146 40.125Z" fill="white"/>
</g>
<defs>
<filter id="filter0_d_98_288" x="0.952148" y="8.32031" width="120.476" height="29.875" filterUnits="userSpaceOnUse" color-interpolation-filters="sRGB">
<feFlood flood-opacity="0" result="BackgroundImageFix"/>
<feColorMatrix in="SourceAlpha" type="matrix" values="0 0 0 0 0 0 0 0 0 0 0 0 0 0 0 0 0 0 127 0" result="hardAlpha"/>
<feOffset dy="4"/>
<feGaussianBlur stdDeviation="2"/>
<feComposite in2="hardAlpha" operator="out"/>
<feColorMatrix type="matrix" values="0 0 0 0 0 0 0 0 0 0 0 0 0 0 0 0 0 0 0.25 0"/>
<feBlend mode="normal" in2="BackgroundImageFix" result="effect1_dropShadow_98_288"/>
<feBlend mode="normal" in="SourceGraphic" in2="effect1_dropShadow_98_288" result="shape"/>
</filter>
<filter id="filter1_d_98_288" x="31.55" y="26.35" width="61.6896" height="21.775" filterUnits="userSpaceOnUse" color-interpolation-filters="sRGB">
<feFlood flood-opacity="0" result="BackgroundImageFix"/>
<feColorMatrix in="SourceAlpha" type="matrix" values="0 0 0 0 0 0 0 0 0 0 0 0 0 0 0 0 0 0 127 0" result="hardAlpha"/>
<feOffset dy="4"/>
<feGaussianBlur stdDeviation="2"/>
<feComposite in2="hardAlpha" operator="out"/>
<feColorMatrix type="matrix" values="0 0 0 0 0 0 0 0 0 0 0 0 0 0 0 0 0 0 0.25 0"/>
<feBlend mode="normal" in2="BackgroundImageFix" result="effect1_dropShadow_98_288"/>
<feBlend mode="normal" in="SourceGraphic" in2="effect1_dropShadow_98_288" result="shape"/>
</filter>
<linearGradient id="paint0_linear_98_288" x1="61" y1="0" x2="61" y2="38" gradientUnits="userSpaceOnUse">
<stop stop-color="#8FADEA"/>
<stop offset="1" stop-color="#142E7C"/>
</linearGradient>
</defs>
</svg>
