<svg width="66" height="66" viewBox="0 0 66 66" fill="none" xmlns="http://www.w3.org/2000/svg">
<path d="M33.0752 0H32.9248C14.7409 0 0 14.741 0 32.9249V33.0751C0 51.259 14.7409 66 32.9248 66H33.0752C51.2591 66 66 51.259 66 33.0751V32.9249C66 14.741 51.2591 0 33.0752 0Z" fill="url(#paint0_linear_115_204)"/>
<path d="M48.3043 17.9946H18.0435C16.7059 17.9946 15.423 18.5258 14.4772 19.4714C13.5314 20.4169 13 21.6994 13 23.0366V41.9441C13 43.2813 13.5314 44.5638 14.4772 45.5093C15.423 46.4549 16.7059 46.9861 18.0435 46.9861H48.3043C49.642 46.9861 50.9248 46.4549 51.8706 45.5093C52.8165 44.5638 53.3478 43.2813 53.3478 41.9441V23.0366C53.3478 21.6994 52.8165 20.4169 51.8706 19.4714C50.9248 18.5258 49.642 17.9946 48.3043 17.9946ZM50.8261 41.9441C50.8261 42.6127 50.5604 43.2539 50.0875 43.7267C49.6146 44.1995 48.9732 44.4651 48.3043 44.4651H18.0435C17.3747 44.4651 16.7333 44.1995 16.2603 43.7267C15.7874 43.2539 15.5217 42.6127 15.5217 41.9441V23.0366C15.5217 22.368 15.7874 21.7268 16.2603 21.254C16.7333 20.7812 17.3747 20.5156 18.0435 20.5156H48.3043C48.9732 20.5156 49.6146 20.7812 50.0875 21.254C50.5604 21.7268 50.8261 22.368 50.8261 23.0366V41.9441Z" fill="white"/>
<path d="M48.0145 24.7634C47.9096 24.6348 47.7803 24.5283 47.634 24.4498C47.4878 24.3713 47.3275 24.3225 47.1623 24.3061C46.9971 24.2897 46.8303 24.306 46.6715 24.3542C46.5126 24.4024 46.3649 24.4815 46.2367 24.5869L33.1741 35.2759L20.0989 24.5869C19.9731 24.4693 19.8246 24.3787 19.6625 24.3208C19.5003 24.2628 19.328 24.2386 19.1562 24.2497C18.9844 24.2608 18.8167 24.307 18.6634 24.3854C18.5101 24.4638 18.3745 24.5728 18.2649 24.7056C18.1554 24.8384 18.0742 24.9922 18.0264 25.1576C17.9786 25.323 17.9651 25.4964 17.9869 25.6671C18.0087 25.8379 18.0653 26.0024 18.1531 26.1505C18.2409 26.2985 18.3582 26.427 18.4976 26.5281L32.3671 37.8725C32.594 38.0605 32.8795 38.1631 33.1741 38.1625C33.4644 38.1601 33.7449 38.0577 33.9685 37.8725L47.838 26.5281C48.094 26.3165 48.2562 26.0124 48.2892 25.682C48.3223 25.3516 48.2236 25.0215 48.0145 24.7634Z" fill="white"/>
<path d="M42.8825 34.7464C42.6462 34.5116 42.3267 34.3799 41.9936 34.3799C41.6605 34.3799 41.3409 34.5116 41.1047 34.7464C40.9865 34.8636 40.8927 35.003 40.8287 35.1566C40.7646 35.3102 40.7317 35.475 40.7317 35.6414C40.7317 35.8078 40.7646 35.9725 40.8287 36.1261C40.8927 36.2797 40.9865 36.4191 41.1047 36.5363L46.1481 41.5783C46.2657 41.695 46.4051 41.7874 46.5584 41.8503C46.7117 41.9131 46.8758 41.9451 47.0415 41.9446C47.2072 41.944 47.3711 41.9108 47.5239 41.8469C47.6768 41.7829 47.8155 41.6896 47.9323 41.572C48.049 41.4545 48.1414 41.3151 48.2043 41.1619C48.2671 41.0086 48.2992 40.8445 48.2986 40.6789C48.298 40.5133 48.2648 40.3494 48.2009 40.1966C48.1369 40.0438 48.0435 39.9051 47.926 39.7884L42.8825 34.7464Z" fill="white"/>
<path d="M23.5031 34.7464L18.4596 39.7884C18.2222 40.0241 18.0881 40.3444 18.0869 40.6789C18.0857 41.0134 18.2175 41.3347 18.4533 41.572C18.689 41.8094 19.0095 41.9434 19.344 41.9446C19.6786 41.9457 20 41.814 20.2374 41.5783L25.2809 36.5363C25.3991 36.4191 25.4929 36.2797 25.5569 36.1261C25.6209 35.9725 25.6539 35.8078 25.6539 35.6414C25.6539 35.475 25.6209 35.3102 25.5569 35.1566C25.4929 35.003 25.3991 34.8636 25.2809 34.7464C25.0447 34.5116 24.7251 34.3799 24.392 34.3799C24.0589 34.3799 23.7393 34.5116 23.5031 34.7464Z" fill="white"/>
<defs>
<linearGradient id="paint0_linear_115_204" x1="9.07807" y1="-346.5" x2="325.902" y2="-156.649" gradientUnits="userSpaceOnUse">
<stop stop-color="white"/>
<stop offset="1" stop-color="#0509E3"/>
</linearGradient>
</defs>
</svg>
