<svg width="66" height="66" viewBox="0 0 66 66" fill="none" xmlns="http://www.w3.org/2000/svg">
<path d="M33.0752 0H32.9248C14.7409 0 0 14.741 0 32.9249V33.0751C0 51.259 14.7409 66 32.9248 66H33.0752C51.2591 66 66 51.259 66 33.0751V32.9249C66 14.741 51.2591 0 33.0752 0Z" fill="url(#paint0_linear_115_186)"/>
<path d="M12.5003 31.8752C12.5928 31.8289 12.6853 31.785 12.7755 31.7434C14.3432 31.0173 15.9318 30.3375 17.518 29.6577C17.6036 29.6577 17.7469 29.5583 17.8278 29.5259C17.9504 29.4727 18.0729 29.4218 18.1955 29.3686C18.4313 29.2669 18.6672 29.1675 18.9008 29.0657C19.3725 28.8646 19.8418 28.6634 20.3135 28.4622L23.1369 27.2529C25.0191 26.4482 26.9036 25.6412 28.7858 24.8365C30.6681 24.0318 32.5526 23.2249 34.4348 22.4202C36.317 21.6155 38.2015 20.8085 40.0837 20.0038C41.9659 19.1991 43.8505 18.3922 45.7327 17.5875C46.1512 17.4071 46.6044 17.1389 47.053 17.0603C47.4299 16.9932 47.7976 16.8637 48.1768 16.792C48.8959 16.6556 49.689 16.6001 50.3781 16.8984C50.6163 17.0025 50.8359 17.1481 51.0186 17.3308C51.8927 18.1956 51.7701 19.6154 51.5851 20.8316C50.2972 29.3085 49.0092 37.7877 47.7189 46.2646C47.5432 47.4277 47.3027 48.7041 46.3847 49.4394C45.6078 50.0614 44.5025 50.1308 43.5429 49.8672C42.5833 49.6013 41.737 49.044 40.9069 48.496C37.4639 46.2161 34.0186 43.9361 30.5756 41.6562C29.757 41.1151 28.846 40.4076 28.8552 39.4248C28.8599 38.8329 29.2136 38.3057 29.5743 37.8363C32.5664 33.9331 36.8835 31.2509 40.0953 27.528C40.5485 27.0032 40.9046 26.0551 40.2826 25.7522C39.9126 25.5718 39.4871 25.8169 39.1495 26.0505C34.9042 28.9987 30.6611 31.9492 26.4157 34.8973C25.0307 35.8593 23.5785 36.8489 21.9091 37.0848C20.4153 37.2975 18.9123 36.8813 17.4671 36.4558C16.2555 36.0997 15.0461 35.7344 13.8414 35.3575C13.2009 35.1586 12.5396 34.9436 12.0448 34.4927C11.5499 34.0418 11.2655 33.2834 11.5638 32.6822C11.7511 32.3053 12.1142 32.0671 12.4957 31.8729L12.5003 31.8752Z" fill="#FEFFFC"/>
<defs>
<linearGradient id="paint0_linear_115_186" x1="9.07807" y1="-346.5" x2="325.902" y2="-156.649" gradientUnits="userSpaceOnUse">
<stop stop-color="white"/>
<stop offset="1" stop-color="#0509E3"/>
</linearGradient>
</defs>
</svg>
